<svg width="108" height="125" viewBox="0 0 108 125" fill="none" xmlns="http://www.w3.org/2000/svg">
<path d="M105.401 106.62C97.0883 115.171 86.166 121.222 74.4018 123.674C62.6537 126.18 50.131 125.116 38.9011 120.604C27.655 116.124 17.7826 108.208 10.8979 98.1497C3.97262 88.1133 0.134857 75.9465 0.00531219 63.6717C-0.156619 51.4023 3.38697 39.0519 10.1665 28.7023C16.9028 18.3391 26.7671 9.99842 38.2291 5.11388C49.6668 0.199638 62.5997 -1.23683 74.9145 1.08258C77.9939 1.65501 81.0247 2.47855 83.9989 3.4776C86.9703 4.49015 89.85 5.76461 92.6487 7.19298C95.4447 8.63486 98.1057 10.3278 100.67 12.1531C103.22 14.0027 105.609 16.0629 107.886 18.2365L101.644 24.4819C94.0521 16.6597 84.1122 11.1379 73.3681 8.88057C62.6402 6.58005 51.189 7.5386 40.9279 11.6482C30.6615 15.72 21.6096 22.9591 15.3051 32.1476C8.96819 41.3119 5.44349 52.4337 5.31125 63.6717C5.15202 74.9069 8.38254 86.2097 14.5737 95.6845C20.7298 105.181 29.7763 112.844 40.2559 117.321C50.7221 121.833 62.5862 123.166 73.8809 121.05C85.1864 118.984 95.8522 113.449 104.132 105.348L105.398 106.615L105.401 106.62Z" fill="#75BE00"/>
<path d="M71.1902 108.51C63.5228 110.136 55.4047 109.769 47.856 107.395C40.2938 105.049 33.3578 100.65 27.8953 94.826C25.1883 91.8937 22.8053 88.6319 20.9053 85.0947C19.0188 81.5521 17.5398 77.772 16.6195 73.8433C14.7087 66.0021 14.903 57.6398 17.1269 49.804C18.2577 45.8942 19.8554 42.1005 21.9686 38.593C22.9915 36.819 24.1952 35.1584 25.4312 33.5249C26.724 31.9372 28.0572 30.3738 29.5389 28.9535C35.3603 23.159 42.7848 18.936 50.7896 16.784C58.7998 14.6644 67.3929 14.5645 75.4949 16.6868C79.5566 17.7048 83.4646 19.3222 87.1431 21.3554C90.8082 23.4156 94.2033 25.9699 97.2503 28.8806L91.0079 35.126C88.5897 32.6365 85.88 30.4251 82.914 28.5998C79.9345 26.8069 76.7418 25.3246 73.379 24.3498C66.675 22.3085 59.3989 22.1006 52.4926 23.6424C45.5943 25.2192 39.0658 28.5782 33.795 33.4385C32.4536 34.6265 31.2392 35.9523 30.049 37.2942C28.9182 38.6848 27.8008 40.097 26.8454 41.6199C24.8699 44.6251 23.3342 47.9193 22.1926 51.3511C19.9553 58.2257 19.4695 65.724 20.9296 72.8901C21.6232 76.4813 22.8377 79.9672 24.4354 83.2721C26.0466 86.5717 28.1193 89.6498 30.5159 92.458C35.363 98.0365 41.6567 102.394 48.6926 104.876C55.715 107.382 63.4256 108.049 70.8529 106.769L71.1902 108.508V108.51Z" fill="#75BE00"/>
<path d="M58.9294 93.8675C54.1227 93.457 49.3781 91.8748 45.2435 89.2475C44.2044 88.5995 43.2113 87.8759 42.2586 87.1009C41.2924 86.3368 40.4045 85.4889 39.5651 84.5871C39.1414 84.1389 38.7042 83.7014 38.2913 83.2451L37.1469 81.7871C36.34 80.842 35.7408 79.7512 35.0634 78.7089C34.7099 78.1959 34.467 77.6207 34.1809 77.0699C33.9056 76.511 33.6142 75.9602 33.3551 75.3931L32.6831 73.6461L32.3484 72.7686C32.2404 72.4743 32.173 72.1692 32.0839 71.8695L31.5846 70.0577C31.4092 69.4555 31.3471 68.8291 31.2257 68.2135C31.1312 67.5951 30.9801 66.9795 30.9369 66.3531L30.7912 64.4711C30.4511 59.438 31.4875 54.324 33.5494 49.6582L33.9299 48.7779C34.0703 48.4917 34.2322 48.2163 34.3833 47.9328L35.3144 46.2506C35.614 45.6809 36.0215 45.184 36.3724 44.6467C36.7448 44.1229 37.0903 43.5775 37.487 43.0752C39.1117 41.0906 40.8741 39.1897 42.9252 37.6075C46.9762 34.4024 51.8125 32.0479 56.9754 31.1001L58.9159 30.7653C59.5636 30.6465 60.2221 30.6411 60.8752 30.5763C61.531 30.5412 62.1869 30.4467 62.8454 30.4656L64.8209 30.5034C65.4822 30.4953 66.138 30.5682 66.7938 30.6519L68.7667 30.8841C69.4171 31.0083 70.0621 31.1541 70.7125 31.2918C71.3602 31.4377 72.0161 31.5538 72.6422 31.7752C77.7457 33.2656 82.5308 35.9901 86.4522 39.6704L80.2098 45.9158C77.4677 43.0023 74.0402 40.7396 70.2294 39.3463C69.7652 39.1357 69.2686 39.0277 68.7801 38.8846L67.312 38.4688L65.806 38.1988C65.304 38.0989 64.802 38.0044 64.2893 37.9855L62.7563 37.8559C62.2435 37.8019 61.7308 37.8559 61.218 37.8478C60.7052 37.8694 60.1843 37.8262 59.6769 37.8937L58.1386 38.0611C54.0282 38.5363 50.0744 40.1645 46.6307 42.5433C44.8818 43.7125 43.3516 45.1813 41.9023 46.7258C41.5488 47.12 41.2438 47.5521 40.9064 47.9625C40.5907 48.3864 40.2155 48.7752 39.9457 49.2288L39.0901 50.5735C38.9498 50.8003 38.7959 51.019 38.6637 51.2485L38.3048 51.9614C36.3481 55.7335 35.1633 60.0105 35.1903 64.3577L35.2119 65.9886C35.2119 66.534 35.3171 67.0686 35.363 67.6113C35.4359 68.1487 35.4494 68.7022 35.5708 69.2341L35.9055 70.838C35.9675 71.1053 36.0026 71.378 36.0836 71.64L36.3292 72.423L36.8177 73.9945C37.0147 74.5048 37.2441 75.0043 37.4546 75.5119C37.6786 76.0142 37.854 76.5407 38.1428 77.0105C38.688 77.9664 39.1522 78.9762 39.8215 79.8592L40.758 81.2308C41.1035 81.6628 41.4705 82.0787 41.8267 82.5053C42.5311 83.3666 43.2868 84.1902 44.1181 84.9354C44.9358 85.6914 45.7968 86.407 46.709 87.0604C50.3308 89.693 54.622 91.4535 59.1237 92.1259L58.9213 93.8648L58.9294 93.8675Z" fill="#75BE00"/>
</svg>
